<?xml version="1.0" encoding="UTF-8"?>
<svg width="41.216mm" height="54.886mm" version="1.1" viewBox="0 0 41.216076 54.885845" xmlns="http://www.w3.org/2000/svg" xmlns:cc="http://creativecommons.org/ns#" xmlns:dc="http://purl.org/dc/elements/1.1/" xmlns:rdf="http://www.w3.org/1999/02/22-rdf-syntax-ns#">
<metadata>
<rdf:RDF>
<cc:Work rdf:about="">
<dc:format>image/svg+xml</dc:format>
<dc:type rdf:resource="http://purl.org/dc/dcmitype/StillImage"/>
<dc:title/>
</cc:Work>
</rdf:RDF>
</metadata>
<g transform="translate(-86.924 -102.15)">
<ellipse transform="rotate(-1.848)" cx="103.1" cy="121.83" rx="15.592" ry="16.3" color="#000000" color-rendering="auto" fill="#bed6e2" image-rendering="auto" shape-rendering="auto" solid-color="#000000" style="isolation:auto;mix-blend-mode:normal"/>
<circle transform="rotate(-1.848)" cx="96.011" cy="117.06" r="4.3467" color="#000000" color-rendering="auto" fill="#4ab6cf" image-rendering="auto" shape-rendering="auto" solid-color="#000000" style="isolation:auto;mix-blend-mode:normal"/>
<ellipse transform="rotate(-1.848)" cx="109.81" cy="115.79" rx="3.4963" ry="3.638" color="#000000" color-rendering="auto" fill="#4ab6cf" image-rendering="auto" shape-rendering="auto" solid-color="#000000" style="isolation:auto;mix-blend-mode:normal"/>
<ellipse transform="rotate(-1.848)" cx="113.14" cy="122.21" rx="2.7662" ry="2.6954" color="#000000" color-rendering="auto" fill="#4ab6cf" image-rendering="auto" shape-rendering="auto" solid-color="#000000" style="isolation:auto;mix-blend-mode:normal"/>
<ellipse transform="rotate(-1.848)" cx="110.35" cy="128.97" rx="3.7106" ry="3.4035" color="#000000" color-rendering="auto" fill="#4ab6cf" image-rendering="auto" shape-rendering="auto" solid-color="#000000" style="isolation:auto;mix-blend-mode:normal"/>
<ellipse transform="rotate(-1.848)" cx="93.602" cy="125.99" rx="3.5435" ry="3.7325" color="#000000" color-rendering="auto" fill="#4ab6cf" image-rendering="auto" shape-rendering="auto" solid-color="#000000" style="isolation:auto;mix-blend-mode:normal"/>
<path transform="rotate(178.74)" d="m-83.522-158.76a20.532 15.866 0 0 1 -10.664 13.913 20.532 15.866 0 0 1 -20.914 -0.53852 20.532 15.866 0 0 1 -9.4413 -14.431" color="#000000" color-rendering="auto" fill="#4ab6cf" image-rendering="auto" shape-rendering="auto" solid-color="#000000" stroke="#d08998" stroke-width=".15515" style="isolation:auto;mix-blend-mode:normal"/>
<path d="m105.33 143.6 4.7283 0.0365-1.2248-14.52 7.9912-4.3232-2.8181 0.56364-0.35343-2.1631-0.49962 2.0961-4.5303 1.7061-0.38998-4.7618 7.2661-3.3544 1.7396 1.1729-0.80736-1.5812 2.6993-1.3162-11.013 2.9553-0.2925-3.205 8.5945-4.6736-3.7504 0.97189-0.35953-2.352-0.38994 2.5652-4.2394 1.9331-0.79673-5.6469-0.40819 6.3948-9.2313-3.3421 3.6712 2.4342-1.4837 0.89876 2.6292-0.55755 4.2379 2.4159-0.12182 7.9456-6.3278-2.7267-1.5142-2.9765 0.45701 2.4434-3.0679-1.3192 10.333 6.7101z" fill="#673c31" fill-rule="evenodd"/>
<text x="128.95755" y="128.75383" fill="#000000" font-family="sans-serif" font-size="10.583px" letter-spacing="0px" stroke-width=".26458px" word-spacing="0px" style="line-height:125%" xml:space="preserve"><tspan x="128.95755" y="138.1176" font-family="Ebrima" font-size="8.8194px" font-weight="bold" stroke-width=".26458px"/></text>
</g>
</svg>
